<svg width="13" height="22" viewBox="0 0 13 22" fill="none" xmlns="http://www.w3.org/2000/svg">
<path d="M11.1839 20.7464L9.37033 21.3924C9.05989 21.5044 8.72497 21.5289 8.40175 21.4631C8.07853 21.3973 7.7793 21.2437 7.53636 21.019C5.13693 18.7927 3.31456 16.0083 2.2283 12.9089C1.14205 9.80946 0.824923 6.48914 1.3046 3.23776C1.35319 2.90879 1.48998 2.59946 1.70022 2.34312C1.91047 2.08678 2.18619 1.89317 2.49761 1.78321L3.49054 1.42847L5.81355 7.18686C5.58803 7.26644 5.38032 7.3901 5.20232 7.55077C5.02432 7.71143 4.87954 7.90593 4.77628 8.12312C4.67301 8.3403 4.6133 8.57589 4.60057 8.81638C4.58783 9.05688 4.62232 9.29755 4.70206 9.52458L6.16182 13.6903C6.24077 13.9176 6.36346 14.1269 6.52286 14.3063C6.68226 14.4858 6.87523 14.6317 7.09071 14.7358C7.30618 14.8398 7.53993 14.9 7.77853 14.9129C8.01713 14.9257 8.25589 14.8909 8.48114 14.8106L9.02391 14.6238C9.17777 14.5692 9.34083 14.5456 9.50373 14.5545C9.66664 14.5634 9.8262 14.6046 9.97331 14.6757C10.1204 14.7468 10.2522 14.8464 10.3611 14.9689C10.4699 15.0913 10.5538 15.2342 10.6078 15.3894L11.9342 19.1723C12.0384 19.4814 12.0182 19.8194 11.8779 20.1137C11.7376 20.408 11.4885 20.6352 11.1839 20.7464Z" stroke="#4D2C19" stroke-width="0.933595" stroke-miterlimit="10"/>
</svg>
