<svg width="29" height="28" viewBox="0 0 29 28" fill="none" xmlns="http://www.w3.org/2000/svg">
<path d="M26.5111 8.65115C26.5111 12.6798 23.0245 15.9457 18.7236 15.9457C16.6012 15.9457 14.677 15.1504 13.2724 13.8605C11.8306 12.5366 10.9361 10.6917 10.9361 8.65115C10.9361 4.62246 14.4227 1.35657 18.7236 1.35657C23.0245 1.35657 26.5111 4.62246 26.5111 8.65115Z" fill="#FFEFE2"/>
<path d="M3.58633 23.4581C3.05658 23.9879 3.05658 24.8468 3.58633 25.3765C4.11608 25.9063 4.97498 25.9063 5.50473 25.3765L3.58633 23.4581ZM13.3629 15.6L12.4037 14.6408L3.58633 23.4581L4.54553 24.4173L5.50473 25.3765L14.3221 16.5592L13.3629 15.6Z" fill="#EA7D28"/>
<path d="M18.7079 1.35651C23.0246 1.35664 26.5125 4.83774 26.5126 9.11823C26.5126 13.3987 23.0246 16.8798 18.7079 16.8799C16.711 16.8799 14.892 16.1359 13.5116 14.9102L13.2421 14.6592C11.796 13.2484 10.9022 11.2876 10.9022 9.11823C10.9023 4.83766 14.3911 1.35651 18.7079 1.35651Z" stroke="#EA7D28" stroke-width="2.71303"/>
</svg>
